<svg width="131" height="34" viewBox="0 0 131 34" fill="none" xmlns="http://www.w3.org/2000/svg">
<path d="M0.12 21.8C0.12 19.5067 0.546667 17.4933 1.4 15.76C2.28 14.0267 3.46667 12.6933 4.96 11.76C6.45333 10.8267 8.12 10.36 9.96 10.36C11.5333 10.36 12.9067 10.68 14.08 11.32C15.28 11.96 16.2 12.8 16.84 13.84V10.68H23.68V33H16.84V29.84C16.1733 30.88 15.24 31.72 14.04 32.36C12.8667 33 11.4933 33.32 9.92 33.32C8.10667 33.32 6.45333 32.8533 4.96 31.92C3.46667 30.96 2.28 29.6133 1.4 27.88C0.546667 26.12 0.12 24.0933 0.12 21.8ZM16.84 21.84C16.84 20.1333 16.36 18.7867 15.4 17.8C14.4667 16.8133 13.32 16.32 11.96 16.32C10.6 16.32 9.44 16.8133 8.48 17.8C7.54667 18.76 7.08 20.0933 7.08 21.8C7.08 23.5067 7.54667 24.8667 8.48 25.88C9.44 26.8667 10.6 27.36 11.96 27.36C13.32 27.36 14.4667 26.8667 15.4 25.88C16.36 24.8933 16.84 23.5467 16.84 21.84ZM42.2284 10.44C44.8418 10.44 46.9218 11.2933 48.4684 13C50.0418 14.68 50.8284 17 50.8284 19.96V33H44.0284V20.88C44.0284 19.3867 43.6418 18.2267 42.8684 17.4C42.0951 16.5733 41.0551 16.16 39.7484 16.16C38.4418 16.16 37.4018 16.5733 36.6284 17.4C35.8551 18.2267 35.4684 19.3867 35.4684 20.88V33H28.6284V10.68H35.4684V13.64C36.1618 12.6533 37.0951 11.88 38.2684 11.32C39.4418 10.7333 40.7618 10.44 42.2284 10.44ZM59.0216 8.36C57.8216 8.36 56.8349 8.01333 56.0616 7.32C55.3149 6.6 54.9416 5.72 54.9416 4.68C54.9416 3.61333 55.3149 2.73333 56.0616 2.04C56.8349 1.32 57.8216 0.959998 59.0216 0.959998C60.1949 0.959998 61.1549 1.32 61.9016 2.04C62.6749 2.73333 63.0616 3.61333 63.0616 4.68C63.0616 5.72 62.6749 6.6 61.9016 7.32C61.1549 8.01333 60.1949 8.36 59.0216 8.36ZM62.4216 10.68V33H55.5816V10.68H62.4216ZM95.8584 10.44C98.6318 10.44 100.832 11.28 102.458 12.96C104.112 14.64 104.938 16.9733 104.938 19.96V33H98.1384V20.88C98.1384 19.44 97.7518 18.3333 96.9784 17.56C96.2318 16.76 95.1918 16.36 93.8584 16.36C92.5251 16.36 91.4718 16.76 90.6984 17.56C89.9518 18.3333 89.5784 19.44 89.5784 20.88V33H82.7784V20.88C82.7784 19.44 82.3918 18.3333 81.6184 17.56C80.8718 16.76 79.8318 16.36 78.4984 16.36C77.1651 16.36 76.1118 16.76 75.3384 17.56C74.5918 18.3333 74.2184 19.44 74.2184 20.88V33H67.3784V10.68H74.2184V13.48C74.9118 12.5467 75.8184 11.8133 76.9384 11.28C78.0584 10.72 79.3251 10.44 80.7384 10.44C82.4184 10.44 83.9118 10.8 85.2184 11.52C86.5518 12.24 87.5918 13.2667 88.3384 14.6C89.1118 13.3733 90.1651 12.3733 91.4984 11.6C92.8318 10.8267 94.2851 10.44 95.8584 10.44ZM130.762 21.48C130.762 22.12 130.722 22.7867 130.642 23.48H115.162C115.269 24.8667 115.709 25.9333 116.482 26.68C117.282 27.4 118.256 27.76 119.402 27.76C121.109 27.76 122.296 27.04 122.962 25.6H130.242C129.869 27.0667 129.189 28.3867 128.202 29.56C127.242 30.7333 126.029 31.6533 124.562 32.32C123.096 32.9867 121.456 33.32 119.642 33.32C117.456 33.32 115.509 32.8533 113.802 31.92C112.096 30.9867 110.762 29.6533 109.802 27.92C108.842 26.1867 108.362 24.16 108.362 21.84C108.362 19.52 108.829 17.4933 109.762 15.76C110.722 14.0267 112.056 12.6933 113.762 11.76C115.469 10.8267 117.429 10.36 119.642 10.36C121.802 10.36 123.722 10.8133 125.402 11.72C127.082 12.6267 128.389 13.92 129.322 15.6C130.282 17.28 130.762 19.24 130.762 21.48ZM123.762 19.68C123.762 18.5067 123.362 17.5733 122.562 16.88C121.762 16.1867 120.762 15.84 119.562 15.84C118.416 15.84 117.442 16.1733 116.642 16.84C115.869 17.5067 115.389 18.4533 115.202 19.68H123.762Z" fill="#F24C4C"/>
</svg>
